<svg xmlns="http://www.w3.org/2000/svg" xmlns:xlink="http://www.w3.org/1999/xlink" width="375" viewBox="0 0 375 375" height="375" version="1.0"><defs><clipPath id="b"><path d="M 74 47.085938 L 315 47.085938 L 315 315.585938 L 74 315.585938 Z M 74 47.085938"/></clipPath><clipPath id="c"><path d="M 153.4375 51.609375 L 270.246094 51.609375 L 270.246094 111 L 153.4375 111 Z M 153.4375 51.609375"/></clipPath><clipPath id="d"><path d="M 87 40 L 262 40 L 262 374.90625 L 87 374.90625 Z M 87 40"/></clipPath><clipPath id="e"><path d="M 183.65625 99 L 280 99 L 280 230.734375 L 183.65625 230.734375 Z M 183.65625 99"/></clipPath><clipPath id="f"><path d="M 195 66 L 303.597656 66 L 303.597656 332 L 195 332 Z M 195 66"/></clipPath><clipPath id="i"><path d="M 29 14 L 35.160156 14 L 35.160156 21 L 29 21 Z M 29 14"/></clipPath><clipPath id="j"><path d="M 20 27 L 26 27 L 26 33.601562 L 20 33.601562 Z M 20 27"/></clipPath><clipPath id="k"><path d="M 0.601562 22 L 7 22 L 7 29 L 0.601562 29 Z M 0.601562 22"/></clipPath><clipPath id="h"><path d="M0 0H36V34H0z"/></clipPath><clipPath id="m"><path d="M0 0H28V29H0z"/></clipPath><mask id="g"><g filter="url(#a)"><path fill-opacity=".898" d="M-37.5 -37.5H412.5V412.5H-37.5z"/></g></mask><mask id="l"><g filter="url(#a)"><path fill-opacity=".6" d="M-37.5 -37.5H412.5V412.5H-37.5z"/></g></mask><filter x="0%" y="0%" width="100%" xmlns:xlink="http://www.w3.org/1999/xlink" xlink:type="simple" xlink:actuate="onLoad" height="100%" id="a" xlink:show="other"><feColorMatrix values="0 0 0 0 1 0 0 0 0 1 0 0 0 0 1 0 0 0 1 0" color-interpolation-filters="sRGB"/></filter></defs><g clip-path="url(#b)"><path fill="#D3E5FC" d="M 306.433594 69.460938 C 254.222656 47.085938 194.558594 47.085938 194.558594 47.085938 C 194.558594 47.085938 134.890625 47.085938 82.683594 69.460938 C 60.308594 181.335938 82.683594 278.292969 194.558594 315.585938 C 306.433594 278.292969 328.808594 181.335938 306.433594 69.460938 Z M 306.433594 69.460938"/></g><path fill="#ABD0FD" d="M 194.558594 299.800781 C 108.128906 268.8125 74.933594 194.988281 95.808594 80.230469 C 142.820312 62.21875 194.019531 62 194.558594 62 C 195.085938 62 246.453125 62.300781 293.304688 80.230469 C 314.179688 194.988281 280.984375 268.8125 194.558594 299.800781 Z M 194.558594 299.800781"/><path fill="#B9D9FC" d="M 293.304688 80.230469 C 246.453125 62.300781 195.085938 62 194.558594 62 L 194.558594 299.800781 C 280.984375 268.8125 314.179688 194.992188 293.304688 80.230469 Z M 293.304688 80.230469"/><g clip-path="url(#c)"><path fill="#FABBBB" d="M 167.105469 58.898438 C 160.894531 61.136719 157.425781 67.390625 157.425781 67.390625 L 157.371094 75.277344 C 157.515625 75.324219 163.511719 77.300781 168.089844 77.300781 C 172.726562 77.300781 178.460938 75.277344 178.460938 75.277344 L 178.613281 75.304688 C 178.789062 72.066406 179.03125 65.464844 178.488281 59.746094 C 178.488281 59.746094 173.3125 56.664062 167.105469 58.898438 Z M 161.257812 55.519531 C 161.257812 53.363281 159.511719 51.621094 157.363281 51.621094 C 155.207031 51.621094 153.464844 53.363281 153.464844 55.519531 C 153.464844 57.667969 155.207031 59.414062 157.363281 59.414062 C 159.511719 59.414062 161.257812 57.667969 161.257812 55.519531 Z M 270.191406 107.464844 C 269.433594 108.886719 267.636719 108.507812 267.636719 108.507812 C 267.636719 108.507812 266.207031 109.644531 264.886719 110.402344 C 263.5625 111.160156 257.785156 110.117188 257.785156 110.117188 C 257.785156 110.117188 249.921875 101.5 259.203125 97.429688 C 259.203125 97.429688 266.035156 100.175781 266.976562 101.785156 C 267.917969 103.394531 267.636719 104.25 267.636719 104.25 C 267.636719 104.25 270.949219 106.046875 270.191406 107.464844"/></g><path fill="#FDC9C8" d="M 178.242188 51.636719 C 178.25 47.574219 178.109375 44.25 176.507812 42.84375 C 171.667969 38.601562 161.726562 35.714844 156.871094 41.949219 C 155.5625 43.628906 154.910156 45.839844 154.835938 48.128906 C 154.628906 54.496094 155.203125 66.691406 156.074219 67.933594 C 156.082031 67.953125 156.09375 67.964844 156.105469 67.980469 C 158.484375 71.371094 162.769531 72.570312 166.167969 70.925781 C 167.929688 70.074219 169.921875 69.167969 171.875 68.40625 C 177.449219 66.230469 178.460938 61 178.460938 61 C 178.410156 60.464844 178.371094 59.925781 178.339844 59.390625 C 180.292969 59.179688 181.816406 57.527344 181.816406 55.519531 C 181.816406 53.472656 180.246094 51.800781 178.242188 51.636719 Z M 266.921875 96.1875 C 264.898438 95.9375 261.242188 94.519531 259.960938 94.875 C 258.683594 95.230469 253.210938 97.714844 251.722656 99.132812 C 250.230469 100.554688 245.835938 108.378906 245.835938 108.378906 L 225.671875 122.992188 L 220.449219 106.738281 L 200.859375 110.78125 L 216.875 141.855469 C 219.234375 146.429688 225.398438 147.3125 228.949219 143.582031 L 253.054688 118.222656 C 256.164062 117.285156 257.4375 114.828125 259.359375 113.515625 C 261.277344 112.203125 263.441406 113.089844 264.789062 112.699219 C 266.144531 112.304688 265.59375 111.5625 265.59375 111.5625 C 264.375 110.28125 261.242188 110.25 260.246094 109.964844 C 259.25 109.679688 257.050781 106.167969 257.050781 106.167969 L 257.332031 101.601562 L 260.671875 97.855469 C 260.671875 97.855469 264.617188 97.855469 265.964844 97.855469 C 267.316406 97.855469 266.921875 96.1875 266.921875 96.1875 Z M 116.460938 111.332031 C 116.460938 111.332031 108.257812 110.628906 101.488281 108.632812 C 98.394531 108.300781 95.296875 106.675781 93.3125 103.445312 C 89.5625 97.363281 91.421875 66.660156 92.195312 56.039062 C 92.195312 56.039062 88.757812 52.90625 88.683594 50.136719 C 88.613281 47.367188 85.773438 44.242188 87.335938 43.320312 C 88.898438 42.394531 87.90625 42.183594 89.042969 41.117188 C 90.175781 40.054688 91.316406 39.34375 91.738281 37.992188 C 92.167969 36.644531 92.808594 35.152344 94.371094 35.222656 C 95.015625 35.253906 95.527344 35.527344 95.972656 35.804688 C 95.972656 35.804688 95.972656 35.808594 95.972656 35.808594 C 96.605469 36.203125 97.097656 36.613281 97.636719 36.359375 C 98.5625 35.9375 98.5625 35.367188 99.199219 34.726562 C 99.359375 34.570312 99.542969 34.46875 99.738281 34.421875 C 99.742188 34.15625 99.769531 33.898438 99.832031 33.660156 C 99.832031 33.660156 101.0625 32.519531 102.167969 33.1875 C 103.277344 33.855469 104.894531 38.550781 103.492188 39.726562 C 103.085938 40.066406 102.558594 39.910156 102.019531 39.476562 C 102.25 42.78125 102.578125 47.042969 103.816406 48.148438 C 105.804688 49.925781 106.019531 49.640625 109.074219 50.5625 C 112.128906 51.484375 111.488281 53.261719 110.351562 53.757812 C 109.21875 54.257812 107.867188 53.757812 105.878906 54.328125 C 103.945312 54.878906 101.417969 55.480469 101.269531 55.511719 C 102.804688 60.878906 107.066406 76.0625 109.566406 88.164062 L 116.046875 86.347656 C 125.238281 92.476562 116.460938 111.332031 116.460938 111.332031"/><path fill="#E3E9FF" d="M 168.089844 76.570312 C 163.457031 76.570312 157.363281 75.277344 157.363281 75.277344 L 153.972656 75.390625 L 167.25 98.996094 L 182.832031 75.851562 L 178.460938 75.277344 C 178.460938 75.277344 172.726562 76.570312 168.089844 76.570312 Z M 98.929688 32.539062 L 98.59375 32.71875 L 98.03125 31.679688 L 97.777344 31.816406 L 96.949219 31.085938 L 95.984375 31.605469 L 96.375 31.394531 L 92.636719 24.46875 L 91.730469 24.292969 L 95.753906 31.734375 L 95.179688 32.039062 L 95.332031 33.132812 L 95.082031 33.269531 L 95.644531 34.3125 L 95.304688 34.492188 L 96.074219 35.917969 C 96.546875 36.429688 98.507812 38.589844 99.289062 39.769531 C 99.859375 40.628906 99.855469 41.535156 99.359375 41.992188 L 103.390625 49.449219 C 103.472656 49.609375 103.675781 49.671875 103.835938 49.582031 L 104.09375 49.445312 L 106.8125 47.976562 L 106.878906 47.9375 C 107.039062 47.855469 107.101562 47.65625 107.011719 47.492188 Z M 268.949219 100.898438 L 268.949219 109.769531 C 268.949219 110.632812 268.246094 111.332031 267.386719 111.332031 L 265.339844 111.332031 C 264.214844 110.453125 262.074219 110.273438 260.855469 110.085938 C 260.832031 109.984375 260.820312 109.878906 260.820312 109.769531 L 260.820312 100.898438 C 260.820312 100.035156 261.523438 99.335938 262.386719 99.335938 L 267.386719 99.335938 C 268.246094 99.335938 268.949219 100.035156 268.949219 100.898438"/><path fill="#798BF1" d="M 204.457031 322.394531 C 203.914062 314.871094 202.441406 301.375 202.441406 301.375 L 200.59375 173.554688 L 135.292969 173.554688 L 135.957031 301.257812 C 135.589844 305.085938 134.800781 310.929688 133.136719 316.902344 C 130.289062 327.128906 133.984375 339.816406 132.089844 347.203125 C 130.199219 354.585938 130.007812 357.992188 130.007812 357.992188 L 136.269531 360.90625 L 157.832031 368.980469 L 167.464844 206.472656 L 183.746094 369.160156 L 197.933594 364.191406 L 208.5625 360.46875 C 208.5625 360.46875 208.875 351.933594 205.941406 346.253906 C 203.007812 340.574219 205.136719 331.867188 204.457031 322.394531 Z M 201.710938 77.300781 C 198.738281 76.175781 188.953125 75.660156 179.332031 75.429688 L 180.777344 75.679688 L 168.089844 95.820312 L 155.226562 75.609375 L 157.363281 75.277344 C 157.363281 75.277344 141.046875 74.632812 136.210938 75.84375 C 130.386719 77.300781 112.785156 87.261719 112.785156 87.261719 L 116.460938 111.332031 L 127.546875 110.679688 L 129.628906 173.554688 L 204.835938 173.554688 L 203.109375 115.148438 L 220.449219 106.738281 C 220.449219 106.738281 215.492188 82.519531 201.710938 77.300781 Z M 96.414062 34.75 L 100.042969 41.464844 L 102.167969 40.320312 L 98.539062 33.601562 Z M 98.363281 32.382812 L 95.453125 33.957031 L 95.644531 34.3125 L 98.554688 32.738281 Z M 96.375 31.394531 L 96.195312 31.054688 L 95.566406 31.394531 L 95.753906 31.734375 Z M 267.636719 98.964844 L 267.636719 99.335938 L 262.136719 99.335938 L 262.136719 98.964844 C 262.136719 98.363281 262.621094 97.875 263.226562 97.875 L 266.546875 97.875 C 267.148438 97.875 267.636719 98.363281 267.636719 98.964844"/><g clip-path="url(#d)"><path fill="#2B1B81" d="M 213.546875 367.984375 C 205.167969 366.277344 206.0625 364.246094 203.320312 362.304688 L 197.933594 364.191406 L 183.746094 369.160156 L 184.296875 374.515625 L 192.617188 374.515625 L 192.460938 372.464844 L 195.078125 374.515625 L 219.234375 374.515625 C 219.234375 374.515625 221.933594 369.6875 213.546875 367.984375 Z M 136.269531 360.90625 C 135.8125 361.113281 135.378906 361.316406 134.992188 361.5 C 132.566406 362.632812 128.449219 366.277344 120.265625 367.984375 C 112.085938 369.6875 115.351562 374.515625 115.351562 374.515625 L 143.625 374.515625 L 149.550781 371.25 L 149.9375 374.515625 L 157.832031 374.515625 L 157.75 368.949219 Z M 101.964844 41.035156 L 102.8125 40.578125 L 102.558594 40.109375 L 99.839844 41.574219 L 100.09375 42.046875 L 100.714844 41.710938 L 104.460938 48.640625 L 105.710938 47.964844 Z M 99.535156 42.304688 C 99.707031 42.203125 99.765625 41.988281 99.667969 41.820312 C 99.570312 41.644531 99.351562 41.589844 99.183594 41.6875 C 99.167969 41.695312 97.828125 42.457031 96.753906 42.328125 C 96.464844 42.292969 96.042969 42.113281 95.582031 41.863281 C 95.558594 41.847656 95.535156 41.835938 95.515625 41.828125 C 94.539062 41.289062 93.394531 40.46875 92.882812 40.074219 C 92.726562 39.953125 92.5 39.984375 92.382812 40.136719 C 92.261719 40.292969 92.292969 40.515625 92.449219 40.636719 C 92.644531 40.789062 93.882812 41.730469 95.0625 42.386719 C 95.207031 43.070312 95.398438 44.101562 95.398438 44.386719 C 95.398438 44.742188 95.078125 45.199219 94.175781 45.425781 C 93.375 45.625 92.808594 45.363281 92.628906 45.265625 L 91.425781 43.195312 C 91.1875 42.789062 90.808594 42.484375 90.355469 42.339844 L 88.683594 41.816406 C 88.5 41.753906 88.300781 41.859375 88.242188 42.046875 C 88.183594 42.234375 88.285156 42.433594 88.472656 42.492188 L 90.140625 43.015625 C 90.421875 43.105469 90.660156 43.296875 90.808594 43.554688 L 92.042969 45.671875 C 92.09375 45.8125 92.167969 46.140625 92.050781 46.359375 C 91.894531 46.664062 91.046875 47.117188 90.640625 47.117188 C 90.375 47.113281 89.203125 46.464844 88.277344 45.863281 C 88.109375 45.757812 87.890625 45.800781 87.785156 45.964844 C 87.679688 46.128906 87.722656 46.351562 87.890625 46.460938 C 88.382812 46.777344 90.046875 47.828125 90.640625 47.828125 C 91.257812 47.828125 92.378906 47.265625 92.683594 46.6875 C 92.78125 46.496094 92.820312 46.289062 92.824219 46.101562 C 93.203125 46.207031 93.726562 46.269531 94.347656 46.113281 C 95.644531 45.789062 96.113281 45.007812 96.113281 44.386719 C 96.113281 44.085938 95.980469 43.355469 95.871094 42.789062 C 96.167969 42.917969 96.441406 43.007812 96.671875 43.035156 C 97.984375 43.1875 99.472656 42.339844 99.535156 42.304688 Z M 164.390625 200.277344 C 164.195312 200.277344 164.035156 200.4375 164.035156 200.632812 C 164.035156 200.832031 164.195312 200.988281 164.390625 200.988281 L 169.457031 200.988281 C 169.652344 200.988281 169.8125 200.832031 169.8125 200.632812 C 169.8125 200.4375 169.652344 200.277344 169.457031 200.277344 Z M 127.546875 111.035156 C 127.550781 111.035156 127.558594 111.035156 127.5625 111.03125 C 127.761719 111.019531 127.910156 110.855469 127.898438 110.660156 L 126.761719 90.328125 C 126.75 90.132812 126.578125 89.980469 126.386719 89.992188 C 126.191406 90.003906 126.042969 90.171875 126.054688 90.367188 L 127.1875 110.699219 C 127.199219 110.886719 127.355469 111.035156 127.546875 111.035156 Z M 101.140625 55.402344 C 101.125 55.417969 99.382812 56.441406 97.53125 56.246094 C 97.335938 56.222656 97.164062 56.367188 97.144531 56.5625 C 97.121094 56.757812 97.265625 56.933594 97.457031 56.953125 C 97.648438 56.972656 97.832031 56.980469 98.019531 56.980469 C 99.871094 56.980469 101.433594 56.058594 101.507812 56.011719 C 101.675781 55.914062 101.730469 55.695312 101.628906 55.527344 C 101.53125 55.359375 101.3125 55.304688 101.140625 55.402344 Z M 101.992188 48.308594 C 99.375 47.464844 97.316406 49.753906 97.226562 49.847656 C 97.097656 49.996094 97.113281 50.222656 97.261719 50.351562 C 97.328125 50.410156 97.410156 50.441406 97.496094 50.441406 C 97.59375 50.441406 97.691406 50.398438 97.761719 50.320312 C 97.777344 50.300781 99.605469 48.285156 101.773438 48.988281 C 101.960938 49.046875 102.160156 48.945312 102.21875 48.757812 C 102.277344 48.570312 102.175781 48.367188 101.992188 48.308594 Z M 178.597656 206.339844 L 167.496094 206.339844 C 167.488281 206.335938 167.484375 206.339844 167.476562 206.339844 L 166.949219 206.339844 C 166.949219 206.339844 166.945312 206.339844 166.945312 206.339844 L 156.246094 206.339844 C 156.046875 206.339844 155.890625 206.496094 155.890625 206.695312 C 155.890625 206.886719 156.046875 207.046875 156.246094 207.046875 L 166.222656 207.046875 L 161.550781 213.105469 C 161.433594 213.257812 161.460938 213.484375 161.613281 213.601562 C 161.679688 213.652344 161.757812 213.675781 161.832031 213.675781 C 161.9375 213.675781 162.042969 213.628906 162.113281 213.539062 L 167.121094 207.046875 L 167.40625 207.046875 L 175.792969 210.988281 C 175.972656 211.074219 176.183594 211 176.265625 210.824219 C 176.347656 210.644531 176.277344 210.433594 176.097656 210.351562 L 169.078125 207.046875 L 178.597656 207.046875 C 178.792969 207.046875 178.953125 206.886719 178.953125 206.695312 C 178.953125 206.496094 178.792969 206.339844 178.597656 206.339844 Z M 260.820312 100.542969 C 260.628906 100.542969 260.464844 100.703125 260.464844 100.898438 L 260.464844 101.574219 L 258.589844 101.574219 C 258.390625 101.574219 258.234375 101.730469 258.234375 101.929688 C 258.234375 102.125 258.390625 102.285156 258.589844 102.285156 L 260.464844 102.285156 L 260.464844 104.585938 L 257.328125 106.019531 C 257.148438 106.101562 257.070312 106.3125 257.152344 106.488281 C 257.234375 106.667969 257.445312 106.746094 257.621094 106.667969 L 260.464844 105.367188 L 260.464844 109.265625 C 260.464844 109.464844 260.628906 109.621094 260.820312 109.621094 C 261.019531 109.621094 261.179688 109.464844 261.179688 109.265625 L 261.179688 104.824219 C 261.179688 104.816406 261.179688 104.8125 261.179688 104.808594 L 261.179688 100.898438 C 261.179688 100.703125 261.019531 100.542969 260.820312 100.542969 Z M 225.460938 122.710938 L 221.054688 126.042969 C 220.898438 126.160156 220.867188 126.382812 220.984375 126.539062 C 221.054688 126.632812 221.164062 126.679688 221.269531 126.679688 C 221.34375 126.679688 221.421875 126.65625 221.484375 126.609375 L 225.886719 123.277344 C 226.042969 123.160156 226.074219 122.9375 225.957031 122.78125 C 225.839844 122.625 225.617188 122.59375 225.460938 122.710938 Z M 203.109375 115.503906 C 203.304688 115.503906 203.464844 115.347656 203.464844 115.148438 L 203.464844 88.164062 C 203.464844 87.96875 203.304688 87.808594 203.109375 87.808594 C 202.914062 87.808594 202.753906 87.96875 202.753906 88.164062 L 202.753906 115.148438 C 202.753906 115.347656 202.914062 115.503906 203.109375 115.503906 Z M 158.359375 361.972656 L 131.164062 351.351562 C 130.980469 351.277344 130.773438 351.371094 130.703125 351.550781 C 130.632812 351.734375 130.722656 351.941406 130.902344 352.011719 L 158.097656 362.636719 C 158.140625 362.652344 158.183594 362.660156 158.226562 362.660156 C 158.367188 362.660156 158.503906 362.574219 158.558594 362.433594 C 158.628906 362.25 158.539062 362.046875 158.359375 361.972656 Z M 135.292969 173.910156 L 141.824219 173.910156 C 141.359375 175.121094 139.699219 178.570312 135.105469 181.394531 C 134.9375 181.496094 134.886719 181.714844 134.988281 181.882812 C 135.089844 182.050781 135.3125 182.101562 135.476562 182 C 140.644531 178.824219 142.234375 174.957031 142.582031 173.910156 L 159.519531 173.910156 L 162.144531 200.667969 C 162.160156 200.851562 162.316406 200.988281 162.496094 200.988281 C 162.507812 200.988281 162.519531 200.988281 162.53125 200.988281 C 162.726562 200.96875 162.867188 200.796875 162.847656 200.597656 L 160.234375 173.910156 L 171.785156 173.910156 L 170.761719 195.503906 C 170.75 195.699219 170.902344 195.867188 171.097656 195.875 C 171.289062 195.898438 171.460938 195.734375 171.46875 195.539062 L 172.496094 173.910156 L 191.589844 173.910156 C 191.960938 175.058594 193.773438 179.414062 200.5 181.28125 C 200.6875 181.332031 200.886719 181.222656 200.9375 181.035156 C 200.988281 180.847656 200.878906 180.648438 200.6875 180.597656 C 194.742188 178.945312 192.835938 175.191406 192.347656 173.910156 L 200.59375 173.910156 C 200.789062 173.910156 200.949219 173.75 200.949219 173.554688 C 200.949219 173.355469 200.789062 173.199219 200.59375 173.199219 L 172.160156 173.199219 C 172.160156 173.199219 172.15625 173.199219 172.152344 173.199219 L 159.851562 173.199219 C 159.847656 173.199219 159.839844 173.199219 159.839844 173.199219 L 135.292969 173.199219 C 135.09375 173.199219 134.9375 173.355469 134.9375 173.554688 C 134.9375 173.75 135.09375 173.910156 135.292969 173.910156 Z M 208.671875 355.214844 C 208.605469 355.03125 208.402344 354.933594 208.214844 355 L 183.128906 363.855469 C 182.941406 363.925781 182.847656 364.128906 182.914062 364.3125 C 182.964844 364.457031 183.101562 364.550781 183.246094 364.550781 C 183.285156 364.550781 183.328125 364.542969 183.363281 364.527344 L 208.453125 355.671875 C 208.636719 355.605469 208.734375 355.402344 208.671875 355.214844 Z M 109.914062 88.082031 C 109.867188 87.890625 109.671875 87.773438 109.484375 87.820312 C 109.292969 87.867188 109.175781 88.058594 109.222656 88.25 L 110.292969 92.613281 C 110.332031 92.777344 110.476562 92.886719 110.636719 92.886719 C 110.664062 92.886719 110.695312 92.882812 110.722656 92.875 C 110.914062 92.828125 111.027344 92.636719 110.984375 92.449219 Z M 161.003906 60.101562 C 160.972656 59.910156 160.785156 59.777344 160.601562 59.804688 C 160.40625 59.832031 160.269531 60.015625 160.296875 60.207031 C 160.390625 60.828125 161.019531 62.003906 162.742188 62.003906 C 164.433594 62.003906 165.238281 60.765625 165.429688 60.113281 C 165.484375 59.925781 165.375 59.730469 165.1875 59.675781 C 165 59.621094 164.804688 59.726562 164.746094 59.914062 C 164.730469 59.96875 164.3125 61.292969 162.742188 61.292969 C 161.242188 61.292969 161.019531 60.222656 161.003906 60.101562 Z M 160.34375 56.875 C 160.636719 57.632812 161.917969 58.1875 162.0625 58.246094 C 162.109375 58.265625 162.15625 58.273438 162.199219 58.273438 C 162.339844 58.273438 162.472656 58.191406 162.53125 58.054688 C 162.605469 57.875 162.519531 57.667969 162.335938 57.589844 C 161.96875 57.4375 161.152344 56.996094 161.007812 56.625 C 160.925781 56.261719 161.722656 54.308594 162.519531 52.714844 C 162.609375 52.542969 162.539062 52.328125 162.359375 52.242188 C 162.183594 52.152344 161.972656 52.222656 161.882812 52.398438 C 161.195312 53.777344 160.078125 56.191406 160.34375 56.875 Z M 163.417969 62.203125 C 162.636719 62.542969 161.691406 62.265625 161.683594 62.261719 C 161.496094 62.207031 161.296875 62.3125 161.238281 62.5 C 161.183594 62.683594 161.285156 62.882812 161.476562 62.941406 C 161.503906 62.949219 161.945312 63.082031 162.519531 63.082031 C 162.882812 63.082031 163.300781 63.027344 163.699219 62.855469 C 163.878906 62.777344 163.964844 62.570312 163.882812 62.390625 C 163.808594 62.207031 163.597656 62.125 163.417969 62.203125 Z M 157.230469 50.816406 C 157.320312 50.816406 157.40625 50.785156 157.476562 50.722656 C 157.527344 50.671875 158.75 49.550781 160.691406 50.34375 C 160.871094 50.417969 161.078125 50.332031 161.15625 50.148438 C 161.230469 49.964844 161.140625 49.761719 160.960938 49.6875 C 158.578125 48.710938 157.050781 50.148438 156.984375 50.207031 C 156.84375 50.34375 156.839844 50.570312 156.976562 50.707031 C 157.042969 50.78125 157.136719 50.816406 157.230469 50.816406 Z M 164.945312 50.816406 C 165.035156 50.816406 165.121094 50.785156 165.191406 50.722656 C 165.242188 50.671875 166.460938 49.550781 168.40625 50.34375 C 168.585938 50.417969 168.792969 50.332031 168.867188 50.148438 C 168.941406 49.964844 168.855469 49.761719 168.675781 49.6875 C 166.289062 48.710938 164.761719 50.148438 164.699219 50.207031 C 164.558594 50.34375 164.554688 50.570312 164.6875 50.707031 C 164.761719 50.78125 164.851562 50.816406 164.945312 50.816406 Z M 166.417969 53.089844 C 166.417969 53.480469 166.730469 53.792969 167.121094 53.792969 C 167.511719 53.792969 167.824219 53.480469 167.824219 53.089844 C 167.824219 52.699219 167.511719 52.386719 167.121094 52.386719 C 166.730469 52.386719 166.417969 52.699219 166.417969 53.089844 Z M 158.476562 53.089844 C 158.476562 53.480469 158.789062 53.792969 159.179688 53.792969 C 159.570312 53.792969 159.886719 53.480469 159.886719 53.089844 C 159.886719 52.699219 159.570312 52.386719 159.179688 52.386719 C 158.789062 52.386719 158.476562 52.699219 158.476562 53.089844 Z M 108.789062 50.25 L 109.160156 50.933594 L 105.054688 53.152344 L 104.683594 52.464844 L 106.109375 51.695312 L 104.714844 49.109375 L 105.964844 48.433594 L 107.359375 51.019531 L 108.789062 50.25"/></g><g clip-path="url(#e)"><path fill="#FFF" d="M 253.308594 107.660156 C 254.878906 110.910156 264.5 133.089844 267.054688 138.496094 C 269.613281 143.90625 279.984375 150.96875 279.984375 150.96875 C 279.984375 150.96875 276.828125 158.03125 272.769531 159.082031 C 268.707031 160.132812 262.246094 155.324219 262.246094 155.324219 L 273.042969 217.828125 C 271.894531 219.855469 265.53125 228.097656 262.925781 229.910156 C 262.925781 229.910156 255.480469 139.796875 255.328125 131.835938 C 255.179688 123.871094 239.667969 99.09375 239.667969 99.09375 C 239.667969 99.09375 251.203125 103.300781 253.308594 107.660156 Z M 185.800781 151.789062 L 199.554688 167.796875 C 199.554688 167.796875 202.96875 164.398438 204.105469 163.265625 C 209.5625 164.101562 212.503906 154.90625 212.503906 154.90625 L 204.066406 143.457031 L 212.632812 134.140625 L 213.507812 162.761719 L 205.9375 220.835938 C 212.933594 227.636719 255.703125 230.535156 255.703125 230.535156 C 255.703125 230.535156 253.859375 147.605469 250.097656 132.582031 C 246.339844 117.558594 224.265625 99.886719 224.265625 99.886719 C 224.265625 99.886719 213.890625 103.066406 209.761719 106.101562 C 200.574219 112.847656 193.441406 124.3125 187.226562 131.726562 C 183.378906 136.3125 182.25 146.972656 185.800781 151.789062"/></g><path fill="#4FDDBB" d="M 229.300781 210.523438 C 229.3125 210.761719 229.128906 210.964844 228.886719 210.976562 C 228.878906 210.980469 228.875 210.980469 228.867188 210.980469 C 228.632812 210.980469 228.441406 210.796875 228.433594 210.5625 C 227.773438 196.570312 226.417969 194.914062 226.128906 194.71875 C 225.96875 194.832031 225.742188 194.824219 225.589844 194.6875 C 225.410156 194.527344 225.394531 194.25 225.554688 194.070312 C 225.71875 193.886719 226.039062 193.757812 226.382812 193.878906 C 226.917969 194.066406 228.554688 194.648438 229.300781 210.523438 Z M 230.738281 191.460938 C 230.765625 191.605469 231.183594 194.003906 231.160156 196.335938 L 230.285156 196.109375 C 230.28125 193.90625 229.886719 191.648438 229.882812 191.613281 C 229.839844 191.375 229.996094 191.152344 230.234375 191.109375 C 230.472656 191.070312 230.699219 191.226562 230.738281 191.460938 Z M 220.863281 193.648438 L 220.011719 193.429688 C 220.191406 192.207031 220.398438 191.292969 220.417969 191.203125 C 220.472656 190.96875 220.707031 190.824219 220.9375 190.875 C 221.175781 190.929688 221.320312 191.164062 221.265625 191.398438 C 221.261719 191.421875 221.046875 192.378906 220.863281 193.648438 Z M 226.386719 123.574219 L 235.367188 122.214844 L 235.660156 123.765625 L 226.722656 125.125 Z M 206.652344 249.3125 C 208.199219 249.710938 209.777344 250.078125 211.378906 250.410156 C 212.984375 250.746094 213.953125 253.535156 215.605469 253.804688 C 216.234375 253.910156 218.332031 244.753906 218.964844 244.84375 C 219.917969 244.988281 219.5 254.683594 220.460938 254.804688 C 223.660156 255.203125 227.492188 252.699219 230.792969 252.875 C 237.503906 253.238281 244.375 253.140625 251.214844 252.605469 C 256.699219 255.425781 264.792969 256.421875 271.753906 249.640625 C 273.53125 249.257812 275.289062 248.847656 277.023438 248.40625 L 271.519531 219.742188 C 270.226562 221.035156 268.5 222.265625 266.742188 223.492188 C 266.742188 223.492188 263.425781 191.042969 260.816406 164.03125 L 260.789062 163.890625 L 250.65625 164.402344 C 252.242188 192.113281 252.949219 227.050781 252.949219 227.050781 C 252.949219 227.050781 221.792969 227.503906 209.660156 222.941406 L 206.652344 249.3125"/><g clip-path="url(#f)"><path fill="#2B1B81" d="M 217.9375 193.238281 C 217.972656 193.082031 218.128906 192.984375 218.285156 193.019531 L 233.539062 196.507812 C 233.695312 196.542969 233.792969 196.699219 233.757812 196.855469 C 233.726562 196.988281 233.605469 197.078125 233.472656 197.078125 C 233.453125 197.078125 233.429688 197.078125 233.410156 197.074219 L 218.15625 193.585938 C 217.996094 193.550781 217.902344 193.398438 217.9375 193.238281 Z M 219.320312 181.484375 C 218.984375 181.566406 218.65625 181.339844 218.609375 181 L 218.414062 179.445312 C 218.371094 179.105469 218.636719 178.804688 218.980469 178.800781 L 221.355469 178.777344 C 221.644531 178.773438 221.894531 178.988281 221.929688 179.28125 L 222.054688 180.285156 C 222.09375 180.574219 221.90625 180.847656 221.625 180.917969 Z M 233.28125 179.816406 L 233.003906 181.359375 C 232.945312 181.695312 232.605469 181.90625 232.273438 181.804688 L 230 181.125 C 229.722656 181.039062 229.550781 180.761719 229.597656 180.472656 L 229.777344 179.472656 C 229.828125 179.1875 230.085938 178.984375 230.378906 179 L 232.75 179.144531 C 233.09375 179.164062 233.339844 179.480469 233.28125 179.816406 Z M 227.90625 209.785156 C 228.570312 209.277344 229.515625 209.402344 230.023438 210.0625 C 230.53125 210.722656 230.40625 211.667969 229.746094 212.175781 C 229.085938 212.683594 228.136719 212.558594 227.628906 211.898438 C 227.121094 211.238281 227.246094 210.292969 227.90625 209.785156 Z M 227.292969 208.988281 C 225.988281 209.988281 225.746094 211.859375 226.746094 213.160156 C 227.75 214.464844 229.617188 214.707031 230.921875 213.707031 C 232.226562 212.703125 232.472656 210.835938 231.46875 209.535156 C 230.464844 208.230469 228.597656 207.984375 227.292969 208.988281 Z M 247.851562 86.101562 C 247.851562 87.410156 247.0625 88.53125 245.9375 89.03125 C 245.519531 86.917969 245.167969 84.679688 244.914062 82.910156 C 246.554688 83.050781 247.851562 84.425781 247.851562 86.101562 Z M 241.082031 80.589844 C 240.730469 81.605469 240.269531 83.003906 239.808594 84.558594 C 239.460938 84.671875 239.117188 84.851562 238.828125 85.132812 C 238.140625 84.445312 237.195312 84.015625 236.148438 84.015625 C 234.851562 84.015625 233.703125 84.671875 233.023438 85.667969 L 229.003906 82.84375 C 229.425781 81.40625 229.890625 81.195312 230.625 79.996094 C 231.023438 82.144531 231.136719 83.683594 231.136719 83.683594 Z M 232.9375 87.800781 C 232.9375 87.273438 233.070312 86.773438 233.296875 86.332031 C 233.324219 86.316406 233.351562 86.296875 233.371094 86.269531 C 233.402344 86.226562 233.417969 86.175781 233.421875 86.125 C 233.984375 85.210938 234.996094 84.597656 236.148438 84.597656 C 237.058594 84.597656 237.882812 84.984375 238.464844 85.597656 C 238.449219 85.621094 238.433594 85.644531 238.417969 85.667969 C 238.339844 85.808594 238.386719 85.988281 238.527344 86.0625 C 238.574219 86.089844 238.625 86.101562 238.671875 86.101562 C 238.726562 86.101562 238.78125 86.082031 238.828125 86.050781 C 238.976562 86.277344 239.097656 86.523438 239.183594 86.785156 C 238.898438 87.867188 238.640625 88.972656 238.4375 90.035156 C 237.855469 90.632812 237.042969 91.007812 236.148438 91.007812 C 234.378906 91.007812 232.9375 89.570312 232.9375 87.800781 Z M 239.417969 85.90625 C 239.355469 85.796875 239.285156 85.6875 239.210938 85.585938 C 239.324219 85.464844 239.457031 85.371094 239.59375 85.289062 C 239.535156 85.496094 239.476562 85.699219 239.417969 85.90625 Z M 248.433594 86.101562 C 248.433594 84.078125 246.832031 82.425781 244.828125 82.328125 C 244.816406 82.246094 244.808594 82.167969 244.796875 82.09375 C 244.910156 82.097656 245.023438 82.03125 245.070312 81.921875 C 245.140625 81.777344 245.074219 81.605469 244.929688 81.539062 C 244.917969 81.53125 244.835938 81.496094 244.710938 81.457031 C 244.589844 80.554688 244.507812 79.917969 244.480469 79.675781 L 247.054688 78.984375 C 248.609375 64.746094 229.960938 65.199219 225.496094 69.730469 C 225.003906 70.226562 224.765625 70.660156 224.710938 71.058594 C 224.277344 71.375 223.90625 71.695312 223.617188 71.996094 C 217.726562 78.144531 218.566406 92.1875 221.351562 95.683594 C 224.132812 99.175781 233.316406 97.796875 233.316406 97.796875 C 233.316406 97.796875 230.34375 95.976562 229.019531 88.925781 C 228.675781 87.074219 228.4375 85.078125 228.839844 83.441406 L 232.734375 86.175781 C 232.496094 86.667969 232.359375 87.21875 232.359375 87.800781 C 232.359375 89.890625 234.058594 91.585938 236.148438 91.585938 C 236.941406 91.585938 237.675781 91.339844 238.285156 90.921875 C 238.144531 91.789062 238.054688 92.613281 238.03125 93.355469 C 237.882812 93.316406 237.730469 93.269531 237.574219 93.210938 C 237.425781 93.152344 237.257812 93.226562 237.203125 93.378906 C 237.144531 93.527344 237.21875 93.695312 237.371094 93.75 C 237.59375 93.835938 237.8125 93.898438 238.027344 93.953125 C 238.058594 95.511719 238.445312 96.617188 239.417969 96.847656 C 243.558594 97.816406 247.964844 95.550781 247.964844 95.550781 C 247.269531 94.714844 246.609375 92.3125 246.054688 89.613281 C 247.445312 89.054688 248.433594 87.691406 248.433594 86.101562 Z M 237.097656 83.480469 C 237.039062 83.453125 235.628906 82.894531 234.230469 84.207031 C 234.175781 84.257812 234.101562 84.285156 234.03125 84.285156 C 233.953125 84.285156 233.875 84.253906 233.820312 84.195312 C 233.710938 84.078125 233.714844 83.890625 233.832031 83.78125 C 235.511719 82.203125 237.25 82.910156 237.324219 82.945312 C 237.46875 83.003906 237.539062 83.175781 237.476562 83.324219 C 237.414062 83.472656 237.246094 83.542969 237.097656 83.480469 Z M 235.785156 85.65625 C 236.132812 85.609375 236.453125 85.855469 236.503906 86.203125 C 236.546875 86.550781 236.304688 86.871094 235.953125 86.917969 C 235.605469 86.964844 235.285156 86.71875 235.238281 86.371094 C 235.191406 86.019531 235.4375 85.699219 235.785156 85.65625 Z M 234.257812 125.867188 L 234.234375 125.871094 C 234.097656 125.890625 233.964844 125.792969 233.945312 125.652344 L 233.402344 121.789062 L 232.753906 121.878906 L 232.679688 121.351562 L 233.328125 121.261719 L 233.3125 121.160156 C 233.292969 121.019531 233.390625 120.890625 233.53125 120.871094 L 233.550781 120.867188 C 233.691406 120.847656 233.820312 120.945312 233.839844 121.085938 L 233.855469 121.183594 L 234.472656 121.097656 L 234.546875 121.625 L 233.929688 121.710938 L 234.476562 125.578125 C 234.496094 125.71875 234.398438 125.847656 234.257812 125.867188 Z M 261.433594 149.039062 C 261.429688 149.039062 261.429688 149.039062 261.429688 149.039062 C 261.265625 149.035156 261.140625 148.902344 261.140625 148.742188 L 261.398438 129.585938 C 261.402344 129.429688 261.53125 129.300781 261.691406 129.300781 C 261.691406 129.300781 261.691406 129.300781 261.695312 129.300781 C 261.855469 129.304688 261.984375 129.433594 261.980469 129.597656 L 261.722656 148.75 C 261.71875 148.910156 261.589844 149.039062 261.433594 149.039062 Z M 267.34375 140.222656 C 267.320312 140.230469 264.894531 140.996094 264.171875 143.519531 C 264.136719 143.648438 264.019531 143.730469 263.890625 143.730469 C 263.867188 143.730469 263.839844 143.726562 263.8125 143.71875 C 263.660156 143.675781 263.566406 143.511719 263.613281 143.359375 C 264.421875 140.523438 267.0625 139.699219 267.175781 139.667969 C 267.328125 139.621094 267.488281 139.707031 267.535156 139.863281 C 267.582031 140.015625 267.496094 140.175781 267.34375 140.222656 Z M 195.6875 145.382812 C 198.144531 142.628906 201.359375 142.832031 202.890625 143.132812 C 202.507812 142.75 200.191406 140.507812 197.929688 140.167969 C 197.773438 140.144531 197.664062 139.996094 197.6875 139.835938 C 197.710938 139.679688 197.851562 139.566406 198.019531 139.59375 C 200.675781 139.992188 203.257812 142.671875 203.367188 142.785156 C 203.476562 142.90625 203.472656 143.089844 203.355469 143.199219 C 203.34375 143.210938 203.332031 143.21875 203.316406 143.230469 C 203.601562 143.300781 203.765625 143.359375 203.773438 143.363281 C 203.925781 143.417969 204.003906 143.585938 203.945312 143.738281 C 203.890625 143.886719 203.722656 143.964844 203.574219 143.90625 C 203.527344 143.890625 199.1875 142.332031 196.121094 145.769531 C 196.0625 145.832031 195.980469 145.867188 195.902344 145.867188 C 195.832031 145.867188 195.765625 145.84375 195.710938 145.792969 C 195.589844 145.683594 195.578125 145.5 195.6875 145.382812 Z M 271.457031 213.644531 C 271.570312 213.53125 271.753906 213.53125 271.867188 213.644531 C 271.980469 213.757812 271.980469 213.941406 271.867188 214.054688 C 271.777344 214.144531 269.613281 216.296875 267.144531 217.726562 C 267.101562 217.75 267.050781 217.765625 267 217.765625 C 266.898438 217.765625 266.800781 217.710938 266.75 217.621094 C 266.667969 217.480469 266.714844 217.304688 266.855469 217.222656 C 269.253906 215.835938 271.433594 213.667969 271.457031 213.644531 Z M 207.871094 215.824219 C 218.40625 224.324219 252.003906 221.871094 252.34375 221.84375 C 252.507812 221.824219 252.644531 221.949219 252.65625 222.113281 C 252.667969 222.269531 252.546875 222.410156 252.386719 222.421875 C 251.882812 222.460938 247.191406 222.804688 240.921875 222.804688 C 230.011719 222.804688 214.308594 221.765625 207.503906 216.277344 C 207.382812 216.175781 207.359375 215.992188 207.460938 215.867188 C 207.5625 215.742188 207.746094 215.722656 207.871094 215.824219 Z M 266.640625 144.707031 C 266.65625 144.867188 266.539062 145.007812 266.378906 145.023438 C 266.371094 145.023438 266.359375 145.023438 266.351562 145.023438 C 266.203125 145.023438 266.078125 144.910156 266.0625 144.761719 C 266.050781 144.636719 265.808594 141.746094 267.460938 140.371094 C 267.585938 140.265625 267.769531 140.285156 267.871094 140.40625 C 267.972656 140.53125 267.957031 140.710938 267.832031 140.816406 C 266.417969 141.996094 266.640625 144.683594 266.640625 144.707031 Z M 219.683594 127.128906 C 219.792969 127.246094 219.789062 127.429688 219.671875 127.539062 L 215.710938 131.261719 C 216.601562 131.425781 218.613281 131.863281 220.503906 132.757812 C 220.648438 132.828125 220.710938 133 220.640625 133.144531 C 220.574219 133.292969 220.398438 133.351562 220.253906 133.285156 C 217.976562 132.207031 215.4375 131.796875 215.179688 131.757812 L 213.195312 133.621094 C 213.140625 133.671875 213.070312 133.699219 212.996094 133.699219 C 212.921875 133.699219 212.84375 133.667969 212.785156 133.609375 C 212.675781 133.492188 212.679688 133.308594 212.796875 133.199219 L 219.273438 127.113281 C 219.390625 127.003906 219.574219 127.011719 219.683594 127.128906 Z M 222.335938 114.625 C 224.074219 120.230469 220.515625 125.824219 220.363281 126.058594 C 220.308594 126.148438 220.214844 126.195312 220.117188 126.195312 C 220.066406 126.195312 220.011719 126.175781 219.960938 126.148438 C 219.828125 126.058594 219.789062 125.878906 219.875 125.742188 C 219.914062 125.691406 223.4375 120.136719 221.78125 114.792969 C 220.796875 111.621094 218.195312 109.132812 214.050781 107.402344 C 213.902344 107.339844 213.832031 107.171875 213.894531 107.023438 C 213.957031 106.875 214.125 106.804688 214.277344 106.867188 C 218.589844 108.671875 221.300781 111.28125 222.335938 114.625 Z M 276.25 140.546875 C 276.203125 140.578125 275.542969 140.539062 275.488281 140.453125 L 273.199219 136.9375 C 273.113281 136.800781 273.347656 136.214844 273.480469 136.128906 C 273.617188 136.039062 274.015625 136.289062 274.101562 136.425781 L 276.375 139.847656 C 276.460938 139.980469 276.386719 140.460938 276.25 140.546875 Z M 273.589844 148.761719 L 274.773438 151.1875 C 274.84375 151.332031 274.699219 151.585938 274.554688 151.65625 C 274.515625 151.675781 274.472656 151.6875 274.429688 151.6875 C 274.324219 151.6875 273.964844 151.382812 273.914062 151.28125 L 272.953125 149.152344 C 272.882812 149.007812 272.917969 148.675781 273.0625 148.605469 C 273.207031 148.535156 273.519531 148.617188 273.589844 148.761719 Z M 259.914062 154.597656 C 260.199219 157.621094 260.503906 160.789062 260.816406 164.03125 C 260.851562 164.40625 260.890625 164.785156 260.925781 165.160156 L 250.777344 166.558594 C 250.738281 165.835938 250.699219 165.113281 250.65625 164.402344 C 249.867188 150.585938 248.859375 138.570312 247.605469 133.570312 C 244.171875 119.84375 227.539062 103.09375 224.691406 100.300781 C 228.738281 98.167969 236.800781 99.5625 240.753906 100.445312 C 244.632812 105.320312 257.605469 122.109375 257.734375 128.882812 C 257.777344 131.226562 258.578125 140.402344 259.683594 152.179688 L 271.519531 143.75 L 270.164062 141.574219 C 270.074219 141.441406 270.234375 141.085938 270.367188 140.996094 C 270.5 140.910156 270.757812 141.019531 270.847656 141.152344 L 272.359375 143.175781 L 273.605469 142.320312 L 270.988281 138.585938 C 270.898438 138.453125 270.917969 137.945312 271.050781 137.855469 C 271.183594 137.765625 271.675781 137.847656 271.769531 137.980469 L 274.445312 141.699219 L 277.636719 139.410156 C 276.78125 138.773438 276.914062 137.410156 277.074219 136.78125 C 277.113281 136.625 277.410156 136.582031 277.566406 136.617188 C 277.722656 136.660156 277.816406 136.816406 277.777344 136.972656 C 277.761719 137.035156 277.707031 138.183594 278.679688 138.726562 L 300.253906 123.398438 L 303.558594 125.726562 L 282.203125 140.464844 L 271.980469 147.523438 L 261.765625 154.574219 Z M 243.929688 321.167969 C 244.066406 320.347656 244.246094 319.535156 244.441406 318.730469 C 244.441406 318.730469 268.246094 322.761719 269.800781 322.644531 C 275.863281 325.414062 282.210938 328.609375 283.550781 330.402344 C 286.253906 334.015625 243.582031 323.234375 243.582031 323.234375 Z M 215.730469 326.992188 L 215.714844 329.089844 C 215.714844 329.089844 259.558594 332.964844 256.316406 329.828125 C 254.707031 328.269531 247.933594 326.121094 241.507812 324.351562 C 239.992188 324.707031 215.847656 324.507812 215.847656 324.507812 C 215.785156 325.335938 215.734375 326.164062 215.730469 326.992188"/></g><path fill="#FDC9C8" d="M 220.609375 190.933594 C 220.703125 190.875 220.820312 190.851562 220.9375 190.875 C 221.042969 190.898438 221.121094 190.960938 221.183594 191.039062 C 222 187.339844 223.761719 181.03125 225.625 180.53125 C 225.695312 180.515625 225.757812 180.5 225.828125 180.484375 C 225.894531 180.503906 225.957031 180.519531 226.023438 180.542969 C 227.871094 181.136719 229.320312 187.578125 229.945312 191.304688 C 230.011719 191.207031 230.109375 191.128906 230.234375 191.109375 C 230.335938 191.089844 230.429688 191.117188 230.511719 191.160156 C 230.011719 188.160156 228.75 181.867188 226.746094 180.289062 C 228.210938 180.046875 229.210938 180.171875 229.636719 180.253906 L 229.738281 179.683594 C 229.164062 179.570312 227.816406 179.414062 225.839844 179.882812 C 223.894531 179.316406 222.539062 179.402344 221.957031 179.488281 L 222.03125 180.066406 C 222.457031 180.003906 223.46875 179.925781 224.917969 180.246094 C 222.832031 181.722656 221.253906 187.976562 220.609375 190.933594 Z M 247.972656 104.695312 L 247.414062 108.582031 C 247.394531 108.742188 247.503906 108.890625 247.660156 108.910156 C 247.824219 108.929688 247.96875 108.824219 247.992188 108.664062 L 248.324219 106.347656 L 250.667969 108.125 L 256.464844 123.480469 C 256.511719 123.597656 256.621094 123.667969 256.738281 123.667969 C 256.769531 123.667969 256.804688 123.664062 256.839844 123.652344 C 256.988281 123.59375 257.066406 123.425781 257.007812 123.273438 L 251.179688 107.839844 C 251.160156 107.789062 251.128906 107.746094 251.085938 107.710938 L 248.65625 105.867188 C 248.578125 105.8125 248.484375 105.796875 248.398438 105.820312 L 248.574219 104.585938 C 248.589844 104.472656 248.539062 104.359375 248.441406 104.300781 L 241.835938 100.222656 C 241.699219 100.140625 241.519531 100.179688 241.433594 100.316406 C 241.351562 100.453125 241.394531 100.632812 241.53125 100.714844 Z M 229.9375 111.597656 L 231.003906 116.546875 C 231.015625 116.601562 231.042969 116.652344 231.082031 116.691406 L 246.429688 132.320312 C 246.484375 132.375 246.5625 132.40625 246.636719 132.40625 C 246.710938 132.40625 246.78125 132.378906 246.839844 132.324219 C 246.953125 132.210938 246.957031 132.027344 246.84375 131.910156 L 231.554688 116.34375 L 230.523438 111.558594 L 235.058594 113.546875 C 235.203125 113.613281 235.375 113.546875 235.441406 113.398438 C 235.503906 113.253906 235.4375 113.082031 235.292969 113.019531 L 225.914062 108.90625 L 224.484375 101.675781 C 224.453125 101.519531 224.300781 101.414062 224.140625 101.445312 C 223.984375 101.476562 223.882812 101.632812 223.914062 101.789062 L 225.371094 109.164062 C 225.390625 109.257812 225.453125 109.335938 225.539062 109.375 L 230.011719 111.335938 C 229.945312 111.402344 229.914062 111.5 229.9375 111.597656 Z M 242.898438 84.703125 C 242.550781 84.75 242.304688 85.070312 242.351562 85.421875 C 242.398438 85.769531 242.71875 86.015625 243.066406 85.96875 C 243.417969 85.921875 243.664062 85.601562 243.617188 85.25 C 243.570312 84.902344 243.246094 84.660156 242.898438 84.703125 Z M 246 89 C 245.589844 89.195312 245.128906 89.308594 244.644531 89.308594 C 242.875 89.308594 241.4375 87.871094 241.4375 86.101562 C 241.4375 85.71875 241.507812 85.355469 241.632812 85.011719 C 241.683594 85.023438 241.714844 85.027344 241.71875 85.027344 C 241.871094 85.0625 242.027344 84.960938 242.0625 84.804688 C 242.09375 84.664062 242.015625 84.53125 241.882812 84.480469 C 242.441406 83.535156 243.46875 82.898438 244.644531 82.898438 C 245.125 82.898438 245.578125 83.007812 245.988281 83.199219 C 246.128906 85.023438 246.148438 86.972656 246.011719 88.878906 C 246.007812 88.917969 246.003906 88.960938 246 89 Z M 245.070312 81.921875 C 245.140625 81.777344 245.074219 81.605469 244.929688 81.539062 C 244.855469 81.503906 243.144531 80.746094 241.414062 82.273438 C 241.296875 82.382812 241.285156 82.5625 241.390625 82.683594 C 241.445312 82.75 241.527344 82.78125 241.609375 82.78125 C 241.675781 82.78125 241.746094 82.757812 241.800781 82.710938 C 243.246094 81.429688 244.671875 82.058594 244.6875 82.066406 C 244.832031 82.132812 245.003906 82.070312 245.070312 81.921875 Z M 237.324219 82.945312 C 237.25 82.910156 235.511719 82.203125 233.832031 83.78125 C 233.714844 83.890625 233.710938 84.078125 233.820312 84.195312 C 233.875 84.253906 233.953125 84.285156 234.03125 84.285156 C 234.101562 84.285156 234.175781 84.257812 234.230469 84.207031 C 235.628906 82.894531 237.039062 83.453125 237.097656 83.480469 C 237.246094 83.542969 237.414062 83.472656 237.476562 83.324219 C 237.539062 83.175781 237.46875 83.003906 237.324219 82.945312 Z M 241.269531 84.390625 C 240.625 84.347656 239.566406 84.417969 238.828125 85.132812 C 238.140625 84.445312 237.195312 84.015625 236.148438 84.015625 C 234.851562 84.015625 233.703125 84.671875 233.023438 85.667969 L 229.003906 82.84375 C 229.425781 81.40625 230.0625 80.078125 230.800781 78.878906 C 231.199219 81.03125 230.933594 83.320312 230.933594 83.320312 L 245.496094 79.40625 C 245.679688 80.371094 245.828125 81.429688 245.933594 82.546875 C 245.53125 82.402344 245.097656 82.316406 244.644531 82.316406 C 243.171875 82.316406 241.898438 83.160156 241.269531 84.390625 Z M 239.417969 98.917969 C 235.390625 99.046875 232.914062 100.066406 229.238281 91.34375 C 229.070312 90.65625 228.902344 89.894531 228.738281 89.050781 M 237.371094 93.75 C 238.078125 94.023438 238.75 94.125 239.363281 94.125 C 241.203125 94.125 242.496094 93.207031 242.566406 93.15625 C 242.699219 93.0625 242.726562 92.878906 242.632812 92.75 C 242.542969 92.621094 242.359375 92.589844 242.230469 92.683594 C 242.207031 92.699219 240.109375 94.171875 237.574219 93.210938 C 237.425781 93.152344 237.257812 93.226562 237.203125 93.378906 C 237.144531 93.527344 237.21875 93.695312 237.371094 93.75 Z M 232.734375 86.175781 C 232.496094 86.667969 232.359375 87.21875 232.359375 87.800781 C 232.359375 89.890625 234.058594 91.585938 236.148438 91.585938 C 238.234375 91.585938 239.933594 89.890625 239.933594 87.800781 C 239.933594 86.972656 239.664062 86.207031 239.210938 85.585938 C 239.722656 85.066406 240.484375 84.960938 241.03125 84.964844 C 240.917969 85.324219 240.855469 85.707031 240.855469 86.101562 C 240.855469 86.210938 240.863281 86.3125 240.871094 86.417969 C 240.75 86.101562 240.609375 85.757812 240.445312 85.367188 C 240.382812 85.21875 240.210938 85.148438 240.0625 85.214844 C 239.917969 85.277344 239.847656 85.445312 239.910156 85.59375 C 240.5 86.984375 241.085938 88.664062 241.046875 89.070312 C 240.8125 89.183594 240.355469 89.097656 240.15625 89.03125 C 240.003906 88.984375 239.839844 89.066406 239.789062 89.21875 C 239.742188 89.371094 239.824219 89.535156 239.976562 89.585938 C 240.035156 89.605469 240.363281 89.707031 240.730469 89.707031 C 240.972656 89.707031 241.230469 89.664062 241.433594 89.515625 C 241.539062 89.441406 241.757812 89.277344 241.460938 88.140625 C 242.132812 89.191406 243.308594 89.890625 244.644531 89.890625 C 245.101562 89.890625 245.539062 89.800781 245.941406 89.652344 C 245.644531 92.753906 244.894531 95.292969 243.527344 96.929688 C 242.535156 98.121094 241.21875 98.828125 239.503906 98.90625 C 239.476562 98.910156 239.449219 98.917969 239.417969 98.917969 C 235.390625 99.046875 231.789062 95.609375 229.238281 91.34375 C 229.070312 90.65625 228.902344 89.894531 228.738281 89.050781 C 228.230469 89.359375 227.632812 89.542969 226.992188 89.542969 C 225.140625 89.542969 223.640625 88.042969 223.640625 86.195312 C 223.640625 84.34375 225.140625 82.847656 226.992188 82.847656 C 227.550781 82.847656 228.078125 82.984375 228.539062 83.226562 C 228.542969 83.226562 228.546875 83.230469 228.546875 83.234375 L 229.265625 83.738281 Z M 235.785156 85.65625 C 235.4375 85.699219 235.191406 86.019531 235.238281 86.371094 C 235.285156 86.71875 235.605469 86.964844 235.953125 86.917969 C 236.304688 86.871094 236.546875 86.550781 236.503906 86.203125 C 236.453125 85.855469 236.132812 85.609375 235.785156 85.65625 Z M 238.527344 86.0625 C 238.574219 86.089844 238.625 86.101562 238.671875 86.101562 C 238.726562 86.101562 238.78125 86.082031 238.828125 86.050781 C 239.15625 86.554688 239.351562 87.15625 239.351562 87.800781 C 239.351562 89.570312 237.914062 91.007812 236.148438 91.007812 C 234.378906 91.007812 232.9375 89.570312 232.9375 87.800781 C 232.9375 87.273438 233.070312 86.773438 233.296875 86.332031 C 233.324219 86.316406 233.351562 86.296875 233.371094 86.269531 C 233.402344 86.226562 233.417969 86.175781 233.421875 86.125 C 233.984375 85.210938 234.996094 84.597656 236.148438 84.597656 C 237.058594 84.597656 237.882812 84.984375 238.464844 85.597656 C 238.449219 85.621094 238.433594 85.644531 238.417969 85.667969 C 238.339844 85.808594 238.386719 85.988281 238.527344 86.0625"/><path fill="#FABBBB" d="M 232.753906 121.132812 C 232.722656 120.910156 232.878906 120.707031 233.097656 120.675781 L 233.898438 120.5625 C 234.121094 120.53125 234.328125 120.6875 234.355469 120.90625 L 234.386719 121.109375 L 233.855469 121.183594 L 233.839844 121.085938 C 233.820312 120.945312 233.691406 120.847656 233.550781 120.867188 L 233.53125 120.871094 C 233.390625 120.890625 233.292969 121.019531 233.3125 121.160156 L 233.328125 121.261719 L 232.78125 121.335938 Z M 233.5 122.496094 L 232.957031 122.578125 L 232.855469 121.863281 L 233.402344 121.789062 Z M 234.558594 122.335938 L 234.03125 122.417969 L 233.929688 121.710938 L 234.460938 121.640625 Z M 273.140625 148.695312 C 273.285156 148.628906 273.457031 148.6875 273.527344 148.832031 L 274.597656 151.03125 C 274.667969 151.171875 274.609375 151.34375 274.464844 151.414062 C 274.425781 151.4375 274.378906 151.445312 274.335938 151.445312 C 274.230469 151.445312 274.125 151.386719 274.078125 151.285156 L 273.003906 149.085938 C 272.933594 148.941406 272.996094 148.769531 273.140625 148.695312 Z M 273.472656 136.832031 C 273.386719 136.699219 273.425781 136.519531 273.558594 136.433594 C 273.695312 136.34375 273.875 136.382812 273.960938 136.515625 L 276.214844 140.011719 C 276.304688 140.148438 276.265625 140.324219 276.128906 140.414062 C 276.082031 140.445312 276.027344 140.460938 275.972656 140.460938 C 275.878906 140.460938 275.78125 140.414062 275.730469 140.324219 Z M 274.464844 142.203125 C 274.554688 142.335938 274.519531 142.515625 274.390625 142.605469 C 274.339844 142.640625 274.28125 142.65625 274.226562 142.65625 C 274.132812 142.65625 274.042969 142.609375 273.984375 142.53125 L 271.167969 138.417969 C 271.074219 138.285156 271.109375 138.105469 271.242188 138.015625 C 271.375 137.921875 271.554688 137.957031 271.644531 138.089844 Z M 270.804688 141.191406 L 272.71875 144.066406 C 272.808594 144.195312 272.773438 144.378906 272.640625 144.46875 C 272.585938 144.5 272.535156 144.515625 272.476562 144.515625 C 272.382812 144.515625 272.292969 144.472656 272.238281 144.386719 L 270.320312 141.511719 C 270.230469 141.378906 270.265625 141.199219 270.398438 141.109375 C 270.535156 141.019531 270.714844 141.058594 270.804688 141.191406 Z M 277.210938 136.828125 C 277.253906 136.675781 277.410156 136.582031 277.566406 136.617188 C 277.722656 136.660156 277.816406 136.816406 277.777344 136.972656 C 277.757812 137.042969 277.367188 138.671875 278.808594 139.042969 C 280.605469 139.507812 281.488281 140.316406 281.527344 140.351562 C 281.644531 140.460938 281.652344 140.644531 281.542969 140.757812 C 281.484375 140.820312 281.40625 140.851562 281.328125 140.851562 C 281.257812 140.851562 281.1875 140.828125 281.128906 140.777344 C 281.121094 140.769531 280.304688 140.027344 278.664062 139.605469 C 277.058594 139.191406 277.011719 137.609375 277.210938 136.828125 Z M 272.816406 148.789062 C 272.816406 148.789062 272.140625 154.648438 274.957031 154.253906 C 276.746094 154.003906 278.417969 152.238281 279.605469 150.703125 C 280.289062 149.820312 280.8125 149.011719 281.105469 148.621094 C 281.894531 147.550781 281.105469 143.832031 281.105469 143.605469 C 281.105469 143.378906 282.285156 141.972656 282.230469 140.957031 C 282.222656 140.828125 282.210938 140.664062 282.195312 140.472656 C 282.097656 139.367188 281.847656 137.421875 281.445312 136.742188 C 281.375 136.617188 281.296875 136.535156 281.214844 136.507812 C 280.59375 136.28125 277.71875 136.675781 277.71875 136.675781 C 277.71875 136.675781 275.804688 134.195312 274.84375 134.476562 C 273.886719 134.761719 273.492188 136 273.492188 136 C 273.492188 136 272.757812 135.265625 271.746094 135.945312 C 270.730469 136.617188 271.238281 137.578125 271.238281 137.578125 C 271.238281 137.578125 269.769531 137.691406 269.882812 138.871094 C 269.996094 140.054688 270.390625 140.675781 270.390625 140.675781 C 270.390625 140.675781 269.066406 140.324219 268.839844 141.222656 C 268.8125 141.339844 268.800781 141.472656 268.8125 141.636719 C 268.859375 142.1875 269.484375 143.414062 270.234375 144.695312 C 270.820312 145.703125 271.476562 146.742188 271.980469 147.523438 C 272.46875 148.277344 272.816406 148.789062 272.816406 148.789062 Z M 212.382812 154.988281 L 212.785156 155.367188 L 213.296875 155.84375 L 222.152344 164.113281 L 224.78125 163.964844 L 226.664062 160.207031 L 230.34375 157.277344 L 235.609375 157.277344 C 235.609375 157.277344 236.207031 158.707031 234.328125 159.082031 C 232.449219 159.457031 231.550781 160.808594 231.550781 160.808594 L 238.613281 160.207031 L 245.230469 163.589844 C 245.230469 163.589844 244.476562 165.015625 243.125 164.566406 C 241.769531 164.113281 237.335938 163.214844 237.335938 163.214844 L 234.855469 163.738281 L 239.140625 164.417969 L 245.753906 169.148438 C 245.753906 169.148438 244.175781 170.347656 242.222656 169 C 240.265625 167.644531 237.9375 167.042969 237.9375 167.042969 L 234.933594 166.894531 L 239.96875 169.375 L 243.726562 172.980469 C 243.726562 172.980469 242.824219 173.730469 239.816406 172.152344 C 236.808594 170.578125 236.28125 170.875 236.28125 170.875 L 240.945312 174.03125 C 240.945312 174.03125 240.867188 175.609375 238.386719 174.480469 C 235.90625 173.355469 234.179688 172.453125 234.179688 172.453125 C 234.179688 172.453125 231.625 172.679688 230.722656 172.753906 C 229.820312 172.832031 224.859375 175.457031 222.453125 173.429688 C 221.289062 172.449219 216.984375 170.019531 212.855469 167.777344 C 208.855469 165.609375 205.03125 163.613281 204.371094 163.269531 C 204.308594 163.234375 204.261719 163.214844 204.261719 163.214844 Z M 238.703125 107.523438 C 236.414062 108.320312 233.753906 107.996094 231.21875 107.21875 C 228.171875 103.761719 225.648438 101.242188 224.691406 100.300781 C 224.601562 100.214844 224.53125 100.148438 224.46875 100.085938 C 225.136719 99.449219 225.808594 98.675781 226.347656 97.769531 C 229.050781 97.945312 231.644531 97.296875 231.644531 97.296875 C 231.644531 97.296875 230.421875 96.140625 229.238281 91.34375 C 231.789062 95.609375 235.390625 99.046875 239.417969 98.917969 C 239.449219 98.917969 239.476562 98.910156 239.503906 98.90625 C 239.632812 99.363281 239.757812 99.835938 239.941406 100.269531 C 240.136719 100.734375 240.390625 101.148438 240.777344 101.441406 C 241.976562 102.351562 241.683594 106.488281 238.703125 107.523438 Z M 250.550781 252.648438 C 257.917969 252.105469 265.25 251.046875 272.316406 249.507812 L 260.332031 307.402344 C 258.804688 313.125 261.667969 319.105469 267.085938 321.496094 C 268.117188 321.949219 268.925781 322.335938 269.566406 322.667969 C 268.089844 322.800781 266.609375 323.1875 265.453125 324.058594 L 244.441406 318.730469 C 245.273438 313.722656 246.527344 311.464844 249.371094 307.257812 C 249.371094 307.257812 245.273438 271.539062 250.550781 252.648438 Z M 218.890625 312.398438 C 216.753906 317.003906 215.871094 319.429688 215.847656 324.507812 L 237.4375 326.433594 C 238.441406 325.390625 239.84375 324.773438 241.285156 324.40625 C 240.59375 324.179688 239.730469 323.929688 238.644531 323.644531 C 232.914062 322.144531 229.136719 316.691406 229.738281 310.800781 L 230.691406 252.863281 C 227.425781 252.683594 224.195312 252.40625 221.03125 252.007812 C 220.066406 251.886719 220.035156 241.945312 219.082031 241.808594 C 218.449219 241.710938 216.898438 251.421875 216.265625 251.320312 C 214.585938 251.042969 212.929688 250.734375 211.300781 250.390625 C 208.808594 271.679688 218.890625 312.398438 218.890625 312.398438"/><g mask="url(#g)"><g><g clip-path="url(#h)" transform="translate(171)"><path fill="#4FDDBB" d="M 17.574219 7.957031 C 12.398438 7.957031 8.207031 12.152344 8.207031 17.324219 C 8.207031 22.5 12.398438 26.695312 17.574219 26.695312 C 22.75 26.695312 26.941406 22.5 26.941406 17.324219 C 26.941406 12.152344 22.75 7.957031 17.574219 7.957031 Z M 17.574219 7.957031"/><path fill="#4FDDBB" d="M 7.007812 2.378906 C 5.457031 2.378906 4.203125 3.632812 4.203125 5.179688 C 4.203125 6.726562 5.457031 7.984375 7.007812 7.984375 C 8.554688 7.984375 9.808594 6.726562 9.808594 5.179688 C 9.808594 3.632812 8.554688 2.378906 7.007812 2.378906 Z M 7.007812 2.378906"/><path fill="#4FDDBB" d="M 24.160156 0 C 22.613281 0 21.355469 1.253906 21.355469 2.800781 C 21.355469 4.351562 22.613281 5.605469 24.160156 5.605469 C 25.707031 5.605469 26.960938 4.351562 26.960938 2.800781 C 26.960938 1.253906 25.707031 0 24.160156 0 Z M 24.160156 0"/><g clip-path="url(#i)"><path fill="#4FDDBB" d="M 32.300781 14.484375 C 30.75 14.484375 29.496094 15.742188 29.496094 17.289062 C 29.496094 18.835938 30.75 20.089844 32.300781 20.089844 C 33.847656 20.089844 35.101562 18.835938 35.101562 17.289062 C 35.101562 15.742188 33.847656 14.484375 32.300781 14.484375 Z M 32.300781 14.484375"/></g><g clip-path="url(#j)"><path fill="#4FDDBB" d="M 22.808594 27.921875 C 21.261719 27.921875 20.007812 29.175781 20.007812 30.722656 C 20.007812 32.273438 21.261719 33.527344 22.808594 33.527344 C 24.355469 33.527344 25.613281 32.273438 25.613281 30.722656 C 25.613281 29.175781 24.355469 27.921875 22.808594 27.921875 Z M 22.808594 27.921875"/></g><g clip-path="url(#k)"><path fill="#4FDDBB" d="M 3.46875 22.664062 C 1.921875 22.664062 0.667969 23.917969 0.667969 25.46875 C 0.667969 27.015625 1.921875 28.269531 3.46875 28.269531 C 5.019531 28.269531 6.273438 27.015625 6.273438 25.46875 C 6.273438 23.917969 5.019531 22.664062 3.46875 22.664062 Z M 3.46875 22.664062"/></g><path fill="#4FDDBB" d="M 8.566406 5.578125 L 11.90625 11.226562 L 10.390625 12.125 L 7.050781 6.476562 Z M 8.566406 5.578125"/><path fill="#4FDDBB" d="M 24.371094 4.648438 L 21.679688 10.632812 L 20.070312 9.910156 L 22.765625 3.925781 Z M 24.371094 4.648438"/><path fill="#4FDDBB" d="M 31.746094 18.1875 L 25.183594 18.1875 L 25.183594 16.425781 L 31.746094 16.425781 Z M 31.746094 18.1875"/><path fill="#4FDDBB" d="M 21.660156 30.097656 L 20.011719 23.746094 L 21.714844 23.304688 L 23.363281 29.65625 Z M 21.660156 30.097656"/><path fill="#4FDDBB" d="M 4.574219 23.875 L 10.230469 20.550781 L 11.121094 22.070312 L 5.464844 25.394531 Z M 4.574219 23.875"/></g></g></g><path fill="#4FDDBB" d="M 249.332031 26.367188 C 245.136719 26.367188 241.734375 29.769531 241.734375 33.964844 C 241.734375 38.164062 245.136719 41.566406 249.332031 41.566406 C 253.527344 41.566406 256.929688 38.164062 256.929688 33.964844 C 256.929688 29.769531 253.527344 26.367188 249.332031 26.367188 Z M 249.332031 26.367188"/><path fill="#4FDDBB" d="M 240.761719 21.84375 C 239.507812 21.84375 238.488281 22.863281 238.488281 24.117188 C 238.488281 25.371094 239.507812 26.390625 240.761719 26.390625 C 242.015625 26.390625 243.035156 25.371094 243.035156 24.117188 C 243.035156 22.863281 242.015625 21.84375 240.761719 21.84375 Z M 240.761719 21.84375"/><path fill="#4FDDBB" d="M 254.671875 19.914062 C 253.417969 19.914062 252.402344 20.933594 252.402344 22.1875 C 252.402344 23.445312 253.417969 24.460938 254.671875 24.460938 C 255.929688 24.460938 256.945312 23.445312 256.945312 22.1875 C 256.945312 20.933594 255.929688 19.914062 254.671875 19.914062 Z M 254.671875 19.914062"/><path fill="#4FDDBB" d="M 261.273438 31.664062 C 260.019531 31.664062 259.003906 32.679688 259.003906 33.9375 C 259.003906 35.191406 260.019531 36.210938 261.273438 36.210938 C 262.53125 36.210938 263.546875 35.191406 263.546875 33.9375 C 263.546875 32.679688 262.53125 31.664062 261.273438 31.664062 Z M 261.273438 31.664062"/><path fill="#4FDDBB" d="M 253.578125 42.558594 C 252.324219 42.558594 251.304688 43.578125 251.304688 44.832031 C 251.304688 46.089844 252.324219 47.105469 253.578125 47.105469 C 254.832031 47.105469 255.851562 46.089844 255.851562 44.832031 C 255.851562 43.578125 254.832031 42.558594 253.578125 42.558594 Z M 253.578125 42.558594"/><path fill="#4FDDBB" d="M 237.894531 38.296875 C 236.640625 38.296875 235.621094 39.3125 235.621094 40.570312 C 235.621094 41.824219 236.640625 42.84375 237.894531 42.84375 C 239.148438 42.84375 240.167969 41.824219 240.167969 40.570312 C 240.167969 39.3125 239.148438 38.296875 237.894531 38.296875 Z M 237.894531 38.296875"/><path fill="#4FDDBB" d="M 242.027344 24.441406 L 244.738281 29.019531 L 243.507812 29.75 L 240.796875 25.167969 Z M 242.027344 24.441406"/><path fill="#4FDDBB" d="M 254.84375 23.6875 L 252.660156 28.539062 L 251.359375 27.953125 L 253.542969 23.101562 Z M 254.84375 23.6875"/><path fill="#4FDDBB" d="M 260.824219 34.664062 L 255.503906 34.664062 L 255.503906 33.238281 L 260.824219 33.238281 Z M 260.824219 34.664062"/><path fill="#4FDDBB" d="M 252.644531 44.324219 L 251.308594 39.171875 L 252.691406 38.8125 L 254.027344 43.964844 Z M 252.644531 44.324219"/><path fill="#4FDDBB" d="M 238.789062 39.28125 L 243.375 36.582031 L 244.101562 37.816406 L 239.511719 40.511719 Z M 238.789062 39.28125"/><g mask="url(#l)"><g><g clip-path="url(#m)" fill="#4FDDBB" transform="translate(113 15)"><path d="M 10.878906 10.472656 C 8.488281 12.253906 7.992188 15.632812 9.773438 18.023438 C 11.554688 20.414062 14.933594 20.910156 17.324219 19.128906 C 19.714844 17.347656 20.210938 13.96875 18.429688 11.578125 C 16.648438 9.1875 13.269531 8.691406 10.878906 10.472656 Z M 10.878906 10.472656"/><path d="M 4.074219 11.53125 C 3.359375 12.066406 3.210938 13.078125 3.746094 13.792969 C 4.277344 14.507812 5.289062 14.65625 6.003906 14.121094 C 6.71875 13.589844 6.867188 12.578125 6.335938 11.863281 C 5.800781 11.148438 4.789062 11 4.074219 11.53125 Z M 4.074219 11.53125"/><path d="M 11.183594 4.53125 C 10.464844 5.0625 10.320312 6.074219 10.851562 6.789062 C 11.382812 7.503906 12.394531 7.652344 13.109375 7.121094 C 13.824219 6.585938 13.972656 5.574219 13.441406 4.859375 C 12.910156 4.144531 11.898438 3.996094 11.183594 4.53125 Z M 11.183594 4.53125"/><path d="M 19.925781 8.421875 C 19.210938 8.953125 19.0625 9.964844 19.597656 10.679688 C 20.128906 11.394531 21.140625 11.542969 21.855469 11.011719 C 22.570312 10.480469 22.71875 9.46875 22.1875 8.753906 C 21.652344 8.039062 20.640625 7.890625 19.925781 8.421875 Z M 19.925781 8.421875"/><path d="M 20.167969 17.894531 C 19.449219 18.429688 19.304688 19.441406 19.835938 20.15625 C 20.367188 20.871094 21.378906 21.019531 22.09375 20.484375 C 22.808594 19.953125 22.957031 18.941406 22.425781 18.226562 C 21.894531 17.511719 20.882812 17.363281 20.167969 17.894531 Z M 20.167969 17.894531"/><path d="M 9.421875 22.121094 C 8.707031 22.65625 8.558594 23.664062 9.09375 24.382812 C 9.625 25.097656 10.636719 25.242188 11.351562 24.710938 C 12.066406 24.179688 12.214844 23.167969 11.679688 22.453125 C 11.148438 21.738281 10.136719 21.589844 9.421875 22.121094 Z M 9.421875 22.121094"/><path d="M 5.898438 12.472656 L 9.386719 13.933594 L 8.992188 14.871094 L 5.507812 13.410156 Z M 5.898438 12.472656"/><path d="M 12.878906 6.605469 L 13.695312 10.296875 L 12.703125 10.515625 L 11.886719 6.824219 Z M 12.878906 6.605469"/><path d="M 20.945312 10.324219 L 17.914062 12.582031 L 17.308594 11.765625 L 20.339844 9.507812 Z M 20.945312 10.324219"/><path d="M 20.382812 19.296875 L 17.4375 16.929688 L 18.070312 16.136719 L 21.019531 18.503906 Z M 20.382812 19.296875"/><path d="M 10.347656 22.300781 L 11.816406 18.820312 L 12.753906 19.214844 L 11.285156 22.695312 Z M 10.347656 22.300781"/></g></g></g></svg>